<svg xmlns="http://www.w3.org/2000/svg" xmlns:xlink="http://www.w3.org/1999/xlink" viewBox="0 0 233.21 72.63"><defs><style>.cls-1{fill:none;}.cls-2{fill:#2026d2;}.cls-3{fill:#62e1fc;}.cls-4{fill:url(#New_Pattern_Swatch_3);}.cls-5{fill:url(#New_Pattern_Swatch_6);}.cls-6{fill:url(#New_Pattern_Swatch_6-3);}</style><pattern id="New_Pattern_Swatch_3" data-name="New Pattern Swatch 3" width="90.53" height="90.53" patternTransform="translate(-1538.09 2155.25)" patternUnits="userSpaceOnUse" viewBox="0 0 90.53 90.53"><rect class="cls-1" width="90.53" height="90.53"/><rect class="cls-2" width="90.53" height="90.53"/></pattern><pattern id="New_Pattern_Swatch_6" data-name="New Pattern Swatch 6" width="90.53" height="90.53" patternTransform="translate(-1538.09 2155.25)" patternUnits="userSpaceOnUse" viewBox="0 0 90.53 90.53"><rect class="cls-1" width="90.53" height="90.53"/><rect class="cls-3" width="90.53" height="90.53"/></pattern><pattern id="New_Pattern_Swatch_6-3" data-name="New Pattern Swatch 6" width="90.53" height="90.53" patternTransform="translate(-89.58 2115.25)" patternUnits="userSpaceOnUse" viewBox="0 0 90.53 90.53"><rect class="cls-1" width="90.53" height="90.53"/><rect class="cls-3" width="90.53" height="90.53"/></pattern></defs><title>Asset 1</title><g id="Layer_2" data-name="Layer 2"><g id="Layer_1-2" data-name="Layer 1"><path class="cls-4" d="M52.52,22.45V71.27H37.88V66.68c-3.22,3.71-8,5.95-14.55,5.95C10.54,72.63,0,61.41,0,46.86S10.54,21.09,23.33,21.09c6.54,0,11.33,2.24,14.55,5.95V22.45ZM37.88,46.86C37.88,39.54,33,35,26.26,35S14.64,39.54,14.64,46.86s4.89,11.91,11.62,11.91S37.88,54.18,37.88,46.86Z"/><path class="cls-4" d="M81.8,36.51V53.79c0,4.2,3.62,4.59,10.06,4.2V71.27c-19.13,2-24.7-3.81-24.7-17.48V36.51H59.35V22.45h7.81V13.18L81.8,8.79V22.45H91.86V36.51Z"/><path class="cls-4" d="M100.15,0H114.8V71.27H100.15Z"/><path class="cls-4" d="M175.62,22.45V71.27H161V66.68c-3.22,3.71-8,5.95-14.54,5.95-12.79,0-23.34-11.22-23.34-25.77s10.55-25.77,23.34-25.77c6.54,0,11.32,2.24,14.54,5.95V22.45ZM161,46.86C161,39.54,156.09,35,149.36,35s-11.62,4.59-11.62,11.91,4.88,11.91,11.62,11.91S161,54.18,161,46.86Z"/><path class="cls-4" d="M233.21,41.3v30H218.57V43.44c0-6-3.81-8.88-8.5-8.88-5.37,0-9.08,3.12-9.08,10.06V71.27H186.35V22.45H201V27c2.64-3.61,7.52-5.95,14-5.95C224.81,21.09,233.21,28.12,233.21,41.3Z"/><circle class="cls-5" cx="26.26" cy="46.86" r="6"/><circle class="cls-6" cx="149.36" cy="46.86" r="6"/></g></g></svg>